<svg xmlns="http://www.w3.org/2000/svg" width="32" height="32" id="games">
  <path fill-rule="evenodd" d="M16 2.747a2.5 2.5 0 0 0-2.5 2.5 2.5 2.5 0 0 0 .992 1.99H13.5c-.554 0-1 .446-1 1 0 .507.379.905.865.973v.01h1v-.01a.985.985 0 0 1-.865-.973c0-.554.446-1 1-1h.522c-1.018-1.388-1.02-3.228 1.119-4.476-.048 0-.093-.014-.14-.014zm.147.016c-1.321 1.156-1.687 2.865-.266 4.5h-.508a.986.986 0 0 0-.873.975c0 .506.379.904.865.972v.01h3.245c.499-.057.89-.463.89-.978 0-.554-.446-1-1-1h-.99a2.493 2.493 0 0 0-1.363-4.475zm-2.784 7.453c.023 4.116-.303 7.67-1.072 11.031h1c.769-3.361 1.095-6.915 1.072-11.03h-1zm2 0c.023 4.116-.303 7.67-1.072 11.031h5.416c-.773-3.363-1.117-6.916-1.096-11.03h-3.248zm-3.308 12.031-.002.01h-.361c-.999 0-1.692.956-1.692 2 0 .357.085.7.23 1h-.376C8.83 25.257 8 26.11 8 27.137v.773l.002.01v.01L8 28.29v.964h1v-.963l.002-.361v-.01L9 27.91v-.774c0-1.027.83-1.88 1.854-1.88h.377a2.302 2.302 0 0 1-.23-1c0-1.043.692-2 1.69-2h.362l.002-.01h-1zm2 0-.002.01h-.361c-.999 0-1.692.956-1.692 2 0 .357.085.7.23 1h-.376c-1.024 0-1.854.852-1.854 1.88v.773l.002.01v.01l-.002.36v.964h14V27.14c0-1.027-.831-1.88-1.855-1.88h-.377a2.3 2.3 0 0 0 .232-1c0-1.043-.695-2-1.693-2h-.362l-.002-.01h-5.888z"></path>
</svg>
