<svg xmlns="http://www.w3.org/2000/svg" width="32" height="32" id="games">
  <path fill-rule="evenodd" d="M11.311.999a.469.469 0 0 0-.468.468v4.686c0 .259.21.469.468.469h1.418c.004.47.004.935.002 1.4h-.359c-.587 0-1.06.42-1.06.94 0 .519.473.937 1.06.937h.938c-.587 0-1.061-.418-1.061-.938s.474-.939 1.06-.939h.36c.002-.465.002-.93-.002-1.4a.469.469 0 0 1-.469-.47V1.468c0-.016.002-.03.004-.047a.355.355 0 0 1 .006-.047l.012-.045a.77.77 0 0 1 .016-.043c.006-.014.011-.028.019-.04.007-.014.017-.028.025-.04a.304.304 0 0 1 .057-.07.79.79 0 0 1 .086-.068.449.449 0 0 0-.229-.068h-1.882zm3.745 0a.47.47 0 0 0-.471.468v1.399h-.45v3.287c0 .258.211.468.47.469.003.47.003.935.001 1.4h-.359c-.587 0-1.06.42-1.06.94 0 .519.473.937 1.06.937h5.383c.587 0 1.058-.418 1.058-.938s-.471-.939-1.058-.939h-.344c-.003-.465-.004-.93 0-1.4h1.418c.26 0 .469-.21.469-.47V1.468A.469.469 0 0 0 20.704 1h-1.861c-.26 0-.47.21-.469.47l.008 1.397h-.95V1.467A.47.47 0 0 0 16.965 1h-1.908zm-1.623.074a.36.36 0 0 1 .12.105.45.45 0 0 0-.12-.105zm.168.175zm.06.21-.004 1.406h.006V1.467l-.002-.01zm-1 9.378c-.153 4.674-.622 9.006-1.482 12.66h.937c.86-3.654 1.33-7.986 1.483-12.66h-.938zm1.875 0c-.153 4.674-.622 9.006-1.482 12.66h7.812c-.863-3.655-1.349-7.987-1.51-12.66h-4.82zm-3.582 13.598-.002.01a1.882 1.882 0 0 0-1.875 1.875c0 .343.101.66.264.937h-.256c-1.059 0-1.994.745-1.994 1.758v.223c0 .08.002.088.002.023l-.002.728v1.01h.937v-1.01l.002-.728c0 .065-.002.057-.002-.023v-.223c0-1.012.936-1.761 1.994-1.761h.258a1.845 1.845 0 0 1-.263-.938 1.88 1.88 0 0 1 1.873-1.875l.002-.01h-.938zm1.875 0-.002.01a1.88 1.88 0 0 0-1.873 1.875c0 .343.1.66.264.937h-.258c-1.059 0-1.994.75-1.994 1.762v.223c0 .08.002.088.002.023l-.002.728v1.01h15.943V29.02c0-1.013-.935-1.762-1.994-1.762h-.191c.162-.277.263-.594.263-.937a1.88 1.88 0 0 0-1.875-1.875h-.02l-.001-.01h-8.262z"></path>
</svg>
