<svg xmlns="http://www.w3.org/2000/svg" width="32" height="32" id="games">
  <path fill-rule="evenodd" d="M15.59.001v1.024h-1v1h1v.857l-4.121 1.885 1 2.236h-.34c-.626 0-1.129.446-1.129 1 0 .54.481.971 1.086.992h1.018c-.605-.02-1.086-.451-1.086-.992 0-.554.503-1 1.128-1h.34l-1-2.236 3.522-1.885-2.365 1.885 1 2.236h-.34c-.626 0-1.13.446-1.13 1 0 .54.482.971 1.087.992h5.654C20.52 8.975 21 8.544 21 8.003c0-.554-.503-1-1.129-1h-.346l.985-2.224-3.92-1.924v-.83h1v-1h-1V0h-1zm-3.106 9.994c-.073 5.14-.572 9.683-1.62 14h1.017c1.048-4.317 1.547-8.86 1.621-14h-1.018zm2.174 0c-.074 5.14-.572 9.683-1.62 14h8.146c-1.054-4.323-1.584-8.855-1.663-14h-4.863zm-4.039 15-.002.01c-1.1 0-2 .901-2 2 0 .366.108.705.281 1h-.273c-1.129 0-2.125.8-2.125 1.88v.236c0 .086.002.094.002.025l-.002.42v1.433h1.018v-1.433l.002-.42c0 .069-.002.06-.002-.025v-.237c0-1.08.996-1.879 2.125-1.879h.273a1.969 1.969 0 0 1-.281-1c0-1.099.9-2 2-2l.002-.01h-1.018zm2.174 0-.002.01c-1.1 0-2 .901-2 2 0 .366.108.705.281 1H10.8c-1.129 0-2.125.8-2.125 1.88v.236c0 .086.002.094.002.025l-.002.42v1.433H25.5V29.88c0-1.08-.996-1.88-2.125-1.88h-.207a1.97 1.97 0 0 0 .281-1c0-1.099-.9-2-2-2h-.02l-.001-.01h-8.635z"></path>
</svg>
