<svg xmlns="http://www.w3.org/2000/svg" width="32" height="32" id="games">
  <path d="M16.82.25c.3.355.637 1.042.825 1.844.02.08.028.16.043.24h-.017c-.885 1.229-2.344 1.952-3.895 1.932-.581 1.513-2.097 2.653-3.988 2.998-1.42.107-2.597 1.034-2.924 2.3a2.773 2.773 0 0 0-.076.95c.01-.161.03-.316.066-.442.378-1.287 1.613-2.199 3.072-2.261 1.95-.291 3.542-1.411 4.188-2.944 1.59.072 2.644-.523 3.592-1.754-.403 2.079-3.016 2.489-3.016 2.489s-1.018 1.804-2.527 2.377c-1.194.453-2.592.73-3.348 1.144-1.15.632-1.52 1.484-1.57 2.686.18.276.426.513.699.726a.5.5 0 0 1 .252-.242c.881-.42 1.694-.904 2.426-1.44a.5.5 0 0 1 .312-.1.5.5 0 0 1 .278.907c-.713.522-1.5.985-2.334 1.4 1.102.386 2.363.2 3.279-.53.04-.037.057-.055.125-.122 1.78.765 3.973.625 5.56-.316l.055-.031c.274-.167.096-.066.096-.066l-.057.082c-.984 1.275-1.05 2.31-4.658 3.219-3.609.909-4.972 4.818-4.244 7.986h1.049c-.727-3.167.636-6.566 4.244-7.474 3.609-.91 3.671-2.454 4.656-3.729l.051-.074.908-.43c-.949 7.18-9.01 2.18-9.01 11.705l.006.48h8.856v-.503h2.16c.15-.327.285-.659.416-.992l3.457-.01c1.377-7.052-1.108-15.534-5.565-19.467l-.12-.088c-.674-1.168-1.83-2.085-3.323-2.445zm.581.39c1.713 1.338 2.134 3.165.525 4.036l-.269.07c1.211-2.379-.063-3.682-.256-4.105zm-1.264 6.118a.5.5 0 0 1 .036 0h1a.5.5 0 1 1 0 1h-1a.5.5 0 0 1-.036-1zM9.911 24.756c-1.1 0-2 .9-2 2 0 .366.108.704.281 1H7.92c-1.13 0-2.125.799-2.125 1.879v.512l.002.273-.002.326v1.004h1v-1.004l.002-.326-.002-.273v-.512c0-1.08.996-1.879 2.125-1.879h.273a1.969 1.969 0 0 1-.281-1c0-1.1.9-2 2-2h-1zm2 0c-1.1 0-2 .9-2 2 0 .366.108.704.281 1H9.92c-1.13 0-2.125.799-2.125 1.879v.512l.002.273-.002.326v1.004h17v-2.113c0-1.08-.998-1.879-2.127-1.879h-.205a1.97 1.97 0 0 0 .28-1c0-1.099-.9-2-2-2h-8.831z"></path>
</svg>
