<svg xmlns="http://www.w3.org/2000/svg" width="32" height="32" id="games">
  <path d="M16.014 1020.614a1.001 1.001 0 0 0-.867 1.5h-.407a2.25 2.25 0 0 0-2.24 2.25c0 .086.016.167.026.25h-.397c-.626 0-1.129.446-1.129 1s.503 1 1.13 1H12c.5.5.5 2.5 0 3h.041c-.582.04-1.04.458-1.04.984 0 .554.502 1 1.128 1h.324v.012h1.389v-.012h-.324c-.626 0-1.13-.446-1.13-1 0-.526.46-.943 1.042-.984h-.041c.5-.5.5-2.5 0-3h.129c-.626 0-1.13-.446-1.13-1s.504-1 1.13-1h.396c-.009-.083-.025-.164-.025-.25 0-1.237.486-2.25 1.72-2.25h-.107c-.402-.569-.137-1.285.565-1.49-.019-.001-.035-.01-.053-.01zm.055.012c-.519.165-.506.895-.069 1.488h.016s-1.192.576-1.127 2.25c0 .086.016.167.025.25h-.396c-.157 0-.305.028-.44.078-.405.152-.69.507-.69.922 0 .554.504 1 1.13 1h-.13c.5.5.5 2.5 0 3h.042c-.582.041-1.041.458-1.041.984 0 .555.503 1 1.129 1h.324v.013h4.76v-.013h.267c.626 0 1.131-.445 1.131-1 0-.526-.46-.942-1.043-.984H20c-.5-.5-.5-2.5 0-3h-.13c.625 0 1.13-.446 1.13-1s-.505-1-1.13-1h-.395c.009-.083.025-.164.025-.25a2.252 2.252 0 0 0-2.242-2.25h-.377a.995.995 0 0 0-.813-1.488zm-3.672 11.984c-.204 4.277-.694 8.028-1.532 11.5h.875c.838-3.472 1.328-7.223 1.532-11.5h-.875zm1.875 0c-.204 4.277-.694 8.028-1.532 11.5h8.442c-.832-3.47-1.304-7.222-1.522-11.5h-5.388zm-3.653 12.5-.002.01c-1.1 0-2 .901-2 2 0 .366.108.704.282 1h-.274c-1.129 0-2.125.8-2.125 1.88V1050.422l.002.014-.002.492v1.182h.875v-1.182l.002-.492c0-.01-.002-.011-.002-.014v-.424c0-1.08.996-1.879 2.125-1.879h.274a1.969 1.969 0 0 1-.282-1c0-1.099.9-2 2-2l.002-.01h-.875zm1.875 0-.002.01c-1.1 0-2 .901-2 2 0 .366.108.704.282 1H10.5c-1.129 0-2.125.8-2.125 1.88V1050.422l.002.014-.002.492v1.181H25.5V1049.991c0-1.08-.998-1.88-2.127-1.88h-.205a1.97 1.97 0 0 0 .281-1c0-1.098-.9-2-2-2h-.021l-.002-.01h-8.932z" color="#000" font-family="sans-serif" font-weight="400" overflow="visible" style="line-height:normal;text-indent:0;text-align:start;text-decoration-line:none;text-decoration-style:solid;text-decoration-color:#000;text-transform:none;block-progression:tb;isolation:auto;mix-blend-mode:normal" transform="translate(0 -1020.362)"></path>
</svg>
