<svg xmlns="http://www.w3.org/2000/svg" width="32" height="32" id="games">
  <path fill-rule="evenodd" d="m15.953.31-.062.059c-.788.77-2.917 3.661-1.094 6.818h-.604c-.626 0-1.129.446-1.129 1s.503 1 1.13 1h5.677c.626 0 1.129-.446 1.129-1s-.503-1-1.129-1h-.687C21.29 4.56 18.417 2.61 15.954.31zm-.096.09c-2.353 2.26-5.12 4.194-3.125 6.787h-.603c-.626 0-1.13.446-1.13 1s.504 1 1.13 1h1c-.626 0-1.13-.446-1.13-1s.504-1 1.13-1h.603C12.09 4.34 14.408 1.854 15.857.4zm-3.359 9.787c-.081 5.32-.595 9.335-1.627 13.5h1c1.032-4.165 1.546-8.18 1.627-13.5h-1zm2.064 0c-.081 5.32-.594 9.335-1.627 13.5h8.24c-1.036-4.166-1.567-8.18-1.654-13.5h-4.959zm-3.941 14.5-.002.01h-.002c-1.1 0-2 .9-2 2 0 .366.108.704.281 1h-.273c-1.129 0-2.125.799-2.125 1.879v.236c0 .086.002.094.002.025l-.002.633v1.22h1v-1.22l.002-.633c0 .069-.002.061-.002-.025v-.236c0-1.08.996-1.88 2.125-1.88h.273a1.97 1.97 0 0 1-.281-1c0-1.099.9-2 2-2h.002l.002-.01h-1zm2.064 0-.002.01h-.002c-1.099 0-2 .9-2 2 0 .366.108.704.282 1h-.274c-1.129 0-2.125.799-2.125 1.879v.236c0 .086.002.094.002.025l-.002.633v1.22H25.5v-2.118c0-1.08-.996-1.88-2.125-1.88h-.207c.173-.295.281-.634.281-1 0-1.099-.9-2-2-2h-.021l-.002-.01h-8.74zm12.288 5.105.076.04h-.14l.064-.038z"></path>
</svg>
